<svg height="800px" width="800px" version="1.1" id="Capa_1" xmlns="http://www.w3.org/2000/svg" xmlns:xlink="http://www.w3.org/1999/xlink" 
	 viewBox="0 0 297.5 297.5" xml:space="preserve">
<g id="XMLID_50_">
	<g>
		<path style="fill:#D61616;" d="M211.71,161.42h46.2c-31.61,50.79-92.61,85.73-109.26,94.61c-10.18-5.2-36.79-19.73-63.03-41.77
			c-16.06-13.5-33.78-31.43-46.71-52.84h46.88c4.32,0,8.15-2.77,9.52-6.86l6.22-18.67l21.96,65.89c1.37,4.1,5.2,6.86,9.52,6.86
			c4.32,0,8.16-2.76,9.52-6.86l8.08-24.24l4.91,9.81c1.77,3.54,5.45,5.71,9.39,5.54c3.95-0.16,7.43-2.63,8.9-6.3l21.31-53.27
			l7.08,21.24C203.56,158.65,207.4,161.42,211.71,161.42z"/>
		<path style="fill:#D61616;" d="M277.19,99.46c0,14.71-3.3,28.72-8.83,41.89h-49.41l-13.46-40.36c-1.33-4-5.01-6.73-9.22-6.86
			c-4.19-0.15-8.05,2.4-9.61,6.31l-23.18,57.95l-5.75-11.49c-1.82-3.63-5.64-5.83-9.69-5.52c-4.05,0.28-7.52,2.98-8.81,6.83
			l-6.22,18.67l-21.96-65.89c-1.37-4.1-5.2-6.86-9.52-6.86s-8.15,2.76-9.52,6.86l-13.45,40.36H28.81
			c-5.28-13.02-8.49-27.04-8.49-41.89c0-32.64,26.56-59.2,59.2-59.2s59.2,26.56,59.2,59.2c0,5.54,4.49,10.03,10.03,10.03
			s10.04-4.49,10.04-10.03c0-32.64,26.55-59.2,59.2-59.2C250.63,40.26,277.19,66.82,277.19,99.46z"/>
		<path d="M297.25,99.46c0,24.89-7.8,49.81-23.2,74.06c-12.02,18.94-28.7,37.53-49.57,55.24c-35.18,29.85-69.89,46.83-71.35,47.54
			c-1.38,0.67-2.88,1.01-4.38,1.01c-1.44,0-2.88-0.31-4.22-0.93c-1.46-0.68-36.22-16.94-71.45-46.45
			c-20.9-17.51-37.6-36.07-49.65-55.17c-15.38-24.4-23.18-49.74-23.18-75.3c0-43.71,35.56-79.27,79.27-79.27
			c29.72,0,55.66,16.44,69.23,40.7c13.57-24.26,39.52-40.7,69.24-40.7C261.69,20.19,297.25,55.75,297.25,99.46z M268.36,141.35
			c5.53-13.17,8.83-27.18,8.83-41.89c0-32.64-26.56-59.2-59.2-59.2c-32.65,0-59.2,26.56-59.2,59.2c0,5.54-4.5,10.03-10.04,10.03
			s-10.03-4.49-10.03-10.03c0-32.64-26.56-59.2-59.2-59.2s-59.2,26.56-59.2,59.2c0,14.85,3.21,28.87,8.49,41.89h49.75l13.45-40.36
			c1.37-4.1,5.2-6.86,9.52-6.86s8.15,2.76,9.52,6.86l21.96,65.89l6.22-18.67c1.29-3.85,4.76-6.55,8.81-6.83
			c4.05-0.31,7.87,1.89,9.69,5.52l5.75,11.49l23.18-57.95c1.56-3.91,5.42-6.46,9.61-6.31c4.21,0.13,7.89,2.86,9.22,6.86l13.46,40.36
			H268.36z M257.91,161.42h-46.2c-4.31,0-8.15-2.77-9.51-6.86l-7.08-21.24l-21.31,53.27c-1.47,3.67-4.95,6.14-8.9,6.3
			c-3.94,0.17-7.62-2-9.39-5.54l-4.91-9.81l-8.08,24.24c-1.36,4.1-5.2,6.86-9.52,6.86c-4.32,0-8.15-2.76-9.52-6.86l-21.96-65.89
			l-6.22,18.67c-1.37,4.09-5.2,6.86-9.52,6.86H38.91c12.93,21.41,30.65,39.34,46.71,52.84c26.24,22.04,52.85,36.57,63.03,41.77
			C165.3,247.15,226.3,212.21,257.91,161.42z"/>
	</g>
	<g>
	</g>
</g>
</svg>